PathFileType	4	(X/Y/Z)	SUBJ59_1_walk_RCNL2025.trc
DataRate	CameraRate	NumFrames	NumMarkers	Units	OrigDataRate	OrigDataStartFrame	OrigNumFrames
100	100	12	25	mm	100	173	345
Frame#	Time	R_Shoulder			L_Shoulder			C7			J_Notch			R_Elbow			L_Elbow			R_Wrist			L_Wrist			R_Asis			L_Asis			Sacral			Thoracic			Sternum			R_Thigh_Lateral			R_Knee_Lateral			R_Shank_Lateral			R_Ankle_Lateral			R_Heel			R_Toe			L_Thigh_Lateral			L_Knee_Lateral			L_Shank_Lateral			L_Ankle_Lateral			L_Heel			L_Toe		
		X1	Y1	Z1	X2	Y2	Z2	X3	Y3	Z3	X4	Y4	Z4	X5	Y5	Z5	X6	Y6	Z6	X7	Y7	Z7	X8	Y8	Z8	X9	Y9	Z9	X10	Y10	Z10	X11	Y11	Z11	X12	Y12	Z12	X13	Y13	Z13	X14	Y14	Z14	X15	Y15	Z15	X16	Y16	Z16	X17	Y17	Z17	X18	Y18	Z18	X19	Y19	Z19	X20	Y20	Z20	X21	Y21	Z21	X22	Y22	Z22	X23	Y23	Z23	X24	Y24	Z24	X25	Y25	Z25
173	1.72000000	-418.442688	1443.431396	550.798950	-424.347076	1499.213745	151.800018	-511.788635	1556.672729	357.508148	-351.183929	1457.534302	347.974030	-456.199524	1128.394897	638.207520	-477.493256	1165.263184	36.038929	-361.036896	866.523346	632.167755	-426.399048	902.851074	51.218230	-357.404907	998.419006	447.881226	-356.813843	998.059265	221.012497	-575.983643	1019.272278	330.052002	-580.862061	1341.223633	327.886108	-299.138641	1264.122192	328.920227	-444.880798	600.883911	520.981934	-466.337341	506.111206	465.846863	-476.058716	304.750610	532.042175	-512.432556	62.559582	414.506897	-551.986511	53.169392	370.169373	-350.623108	40.701298	383.168945	-343.314423	620.486145	113.608131	-314.873291	522.898193	167.333923	-413.323425	357.544342	116.010742	-517.915771	155.535431	203.346146	-556.522949	149.538635	264.990662	-390.868195	55.618942	223.936630
174	1.73000000	-408.493134	1443.905151	550.219727	-415.082001	1498.137817	151.069702	-502.105652	1556.515503	356.797455	-341.582764	1457.164551	347.338623	-444.155609	1129.146362	639.290161	-471.785461	1164.364990	36.390762	-344.638397	868.930054	633.173859	-422.848663	901.489899	50.651349	-348.706146	997.747620	448.283264	-347.226929	998.035522	221.548630	-566.868530	1018.936401	329.529694	-571.461182	1341.025146	327.867859	-289.857117	1263.697021	329.043671	-439.410522	600.564148	520.815430	-462.154877	506.037659	465.662537	-473.655914	304.889008	531.886536	-512.332458	62.780556	414.336121	-551.921265	53.436420	370.034760	-350.473938	40.617599	383.089355	-329.462341	621.762512	114.472404	-300.040222	524.249084	168.418747	-392.193420	354.784851	116.660797	-487.239655	147.661621	203.372330	-525.569214	139.387451	265.307343	-355.543884	54.030029	222.227310
175	1.74000000	-398.542297	1444.173462	549.554016	-405.832764	1496.927368	150.270355	-492.424011	1556.206909	356.022919	-331.968994	1456.653198	346.641510	-432.065216	1129.743042	640.301819	-465.897430	1163.357910	36.649666	-328.397919	871.160553	634.056122	-419.105240	900.031433	50.087226	-339.979919	996.885498	448.618835	-337.714844	997.721680	222.047958	-557.741882	1018.495117	328.998840	-562.056274	1340.687988	327.817413	-280.536530	1263.137207	329.115540	-434.147156	600.200439	520.728088	-458.092896	505.940308	465.531006	-471.483215	305.005981	531.793213	-512.262573	62.978764	414.201935	-551.848511	53.693901	369.884460	-350.341797	40.559624	383.039764	-316.074768	622.701111	115.383072	-285.613190	525.197327	169.451889	-371.013916	351.776276	117.211517	-456.232910	139.995316	203.224487	-494.303131	129.528824	265.336334	-320.281311	52.801216	220.724686
176	1.75000000	-388.589264	1444.244995	548.811829	-396.611481	1495.591309	149.401611	-482.735992	1555.749512	355.183899	-322.337646	1456.000488	345.880249	-419.894226	1130.198120	641.233276	-459.772614	1162.237549	36.811745	-312.323944	873.207336	634.812134	-415.195648	898.451660	49.547711	-331.233521	995.862610	448.882141	-328.262482	997.127075	222.501038	-548.598999	1017.946960	328.465057	-552.643372	1340.218750	327.737244	-271.181580	1262.432617	329.125946	-429.058380	599.796021	520.712463	-454.115936	505.818451	465.445190	-469.486145	305.093872	531.753906	-512.213501	63.159576	414.097778	-551.776184	53.952328	369.719666	-350.237000	40.520687	383.020264	-303.162476	623.250671	116.320053	-271.571472	525.739563	170.412003	-349.796356	348.607300	117.647209	-424.975494	132.637405	202.872818	-462.810486	120.095245	265.025116	-285.182587	51.956215	219.539871
177	1.76000000	-378.630951	1444.131348	547.999878	-387.418152	1494.138306	148.465485	-473.031769	1555.149902	354.280579	-312.684753	1455.209106	345.054504	-407.618408	1130.527344	642.075562	-453.371277	1161.002930	36.874676	-296.426239	875.066132	635.439667	-411.133881	896.739166	49.044211	-322.473236	994.712524	449.069733	-318.836792	996.277222	222.894104	-539.434998	1017.291992	327.930603	-543.218994	1339.627808	327.622589	-261.797028	1261.577026	329.064331	-424.096130	599.353577	520.754639	-450.177460	505.669098	465.391479	-467.575500	305.145233	531.750244	-512.174683	63.331608	414.015045	-551.711792	54.221836	369.542023	-350.164032	40.496662	383.025513	-290.727539	623.376282	117.259605	-257.912292	525.883667	171.286377	-328.581055	345.354614	117.957520	-393.561432	125.674896	202.305923	-431.188629	111.199196	264.369720	-250.336533	51.503990	218.738007
178	1.77000000	-368.662201	1443.845459	547.120544	-378.240570	1492.576904	147.466110	-463.300659	1554.417725	353.315002	-303.006195	1454.282959	344.165558	-395.223938	1130.746704	642.819641	-446.671967	1159.656860	36.837917	-280.714676	876.734680	635.936310	-406.902985	894.902100	48.570480	-313.703583	993.469360	449.182251	-309.396729	995.205994	223.215134	-530.244019	1016.532532	327.393311	-533.778687	1338.925781	327.462219	-252.386444	1260.569336	328.921112	-419.200134	598.874451	520.834778	-446.225525	505.489136	465.352020	-465.654175	305.155060	531.758484	-512.136536	63.504040	413.944672	-551.661621	54.510628	369.354309	-350.122772	40.486561	383.047638	-278.764648	623.063293	118.172173	-244.651352	525.643860	172.072525	-307.423096	342.076111	118.131348	-362.098785	119.181664	201.533173	-399.539948	102.926842	263.399628	-215.816925	51.451694	218.338348
179	1.78000000	-358.676239	1443.401611	546.173218	-369.057709	1490.915894	146.408463	-453.533295	1553.563354	352.290588	-293.297546	1453.227173	343.214294	-382.707031	1130.870728	643.455750	-439.670044	1158.204834	36.703037	-265.199249	878.211609	636.299713	-402.458603	892.966248	48.106102	-304.926666	992.166382	449.226318	-299.906219	993.948669	223.459671	-521.018616	1015.672852	326.847198	-524.316956	1338.123047	327.240204	-242.952881	1259.413818	328.688873	-414.304993	598.358887	520.928040	-442.210083	505.278015	465.307739	-463.641022	305.122467	531.755249	-512.092712	63.685509	413.878265	-551.629333	54.822372	369.161743	-350.111542	40.490833	383.078278	-267.267212	622.316895	119.020500	-231.818146	525.036438	172.777008	-286.380371	338.812653	118.159386	-330.701874	113.217941	200.585464	-367.964752	95.334274	262.170197	-181.693817	51.808163	218.321671
180	1.79000000	-348.665558	1442.815308	545.155823	-359.843933	1489.164429	145.296722	-443.722626	1552.597778	351.209503	-283.553680	1452.046387	342.201080	-370.073853	1130.911499	643.974121	-432.376648	1156.656006	36.473866	-249.891365	879.496155	636.527649	-397.749756	890.963379	47.627348	-296.141876	990.833740	449.214539	-290.343262	992.538147	223.634003	-511.750458	1014.717773	326.282654	-514.830200	1337.228882	326.936676	-233.499908	1258.119507	328.363953	-409.349426	597.807007	521.007568	-438.090881	505.038544	465.241974	-461.484589	305.052185	531.721191	-512.039917	63.884792	413.808350	-551.616150	55.156647	368.973297	-350.128693	40.510590	383.109894	-256.236603	621.156982	119.764145	-219.445953	524.076721	173.412277	-265.507996	335.594391	118.040825	-299.482910	107.830978	199.508743	-336.560486	88.447250	260.754700	-148.046387	52.591755	218.640579
181	1.80000000	-338.622314	1442.101807	544.064514	-350.572327	1487.332031	144.133530	-433.863556	1551.531250	350.070221	-273.769226	1450.744019	341.126953	-357.340729	1130.879761	644.365540	-424.816498	1155.022217	36.155525	-234.804665	880.588928	636.618347	-392.738251	888.919434	47.116879	-287.343018	989.495911	449.164520	-280.700531	991.003418	223.754135	-502.432007	1013.671326	325.685791	-505.318176	1336.252686	326.530121	-224.031326	1256.698364	327.947845	-404.283112	597.220093	521.049011	-433.841125	504.774475	465.141693	-459.168518	304.955933	531.643616	-511.976440	64.112282	413.729126	-551.620789	55.515862	368.796844	-350.172180	40.546032	383.136261	-245.691391	619.608276	120.371468	-207.562134	522.780151	173.995529	-244.860214	332.450104	117.787750	-268.551483	103.057327	198.351929	-305.429047	82.270027	259.228027	-114.970673	53.838387	219.231522
182	1.81000000	-328.538635	1441.275269	542.893250	-341.216919	1485.429077	142.920685	-423.952545	1550.374268	348.867767	-263.941437	1449.323364	339.994507	-344.533112	1130.786011	644.621338	-417.021057	1153.315186	35.752766	-219.954010	881.492096	636.571625	-387.406052	886.849945	46.567326	-278.516479	988.167358	449.096649	-270.980835	989.368164	223.841263	-493.057709	1012.537354	325.040466	-495.781982	1335.203613	326.001160	-214.548706	1255.165405	327.447144	-399.069061	596.601196	521.034363	-429.446411	504.488647	464.997375	-456.709320	304.853180	531.517578	-511.900482	64.380959	413.637207	-551.632263	55.909668	368.629822	-350.236359	40.593498	383.152863	-235.670502	617.692200	120.832352	-196.183701	521.167114	174.550400	-224.501755	329.416931	117.425179	-238.024567	98.925148	197.155930	-274.688599	76.798286	257.649841	-82.584122	55.594788	220.025604
183	1.82000000	-318.406372	1440.348877	541.633423	-331.754700	1483.467163	141.659790	-413.988129	1549.138428	347.595123	-254.071243	1447.790894	338.805969	-331.682526	1130.640137	644.733582	-409.020660	1151.545166	35.268768	-205.353989	882.209717	636.390350	-381.751266	884.763672	45.978311	-269.646790	986.849548	449.028351	-261.191315	987.652161	223.914749	-483.623199	1011.322510	324.331604	-486.220703	1334.091919	325.334473	-205.049591	1253.538452	326.872498	-393.683990	595.955750	520.954712	-424.901337	504.184692	464.804260	-454.146118	304.769745	531.345581	-511.810211	64.706093	413.531433	-551.623779	56.352036	368.459259	-350.309448	40.643394	383.157135	-226.226501	615.424805	121.164055	-185.319443	519.268188	175.107574	-204.523193	326.544373	116.989548	-208.041382	95.453651	195.949005	-244.482925	72.025002	256.057373	-51.028648	57.900085	220.954620
184	1.83000000	-308.217651	1439.337524	540.275879	-322.167816	1481.458618	140.351257	-403.972076	1547.836792	346.244659	-244.162094	1446.158813	337.561676	-318.822754	1130.451782	644.696594	-400.839600	1149.723267	34.704464	-191.018837	882.748230	636.080139	-375.778625	882.668182	45.350457	-260.724762	985.534424	448.967957	-251.336395	985.875671	223.984070	-474.122498	1010.037781	323.548248	-476.628998	1332.927490	324.519836	-195.527588	1251.838135	326.236938	-388.118164	595.293274	520.811829	-420.205353	503.870148	464.563507	-451.521637	304.730957	531.136597	-511.703125	65.104149	413.412750	-551.562683	56.861595	368.274353	-350.375641	40.682411	383.147339	-217.408630	612.820068	121.408371	-174.972717	517.126770	175.700882	-185.039536	323.890015	116.529305	-178.768692	92.647797	194.750687	-214.983032	67.935760	254.469528	-20.469084	60.769753	221.952698
